<?xml version="1.0" encoding="utf-8"?>
<svg viewBox="31.877 183.374 21.5 21.5" width="21.5" height="21.5" xmlns="http://www.w3.org/2000/svg">
  <defs/>
  <path d="M 45.627 204.874 L 39.627 204.874 C 34.197 204.874 31.877 202.554 31.877 197.124 L 31.877 191.124 C 31.877 185.694 34.197 183.374 39.627 183.374 L 45.627 183.374 C 51.057 183.374 53.377 185.694 53.377 191.124 L 53.377 197.124 C 53.377 202.554 51.057 204.874 45.627 204.874 Z M 39.627 184.874 C 35.017 184.874 33.377 186.514 33.377 191.124 L 33.377 197.124 C 33.377 201.734 35.017 203.374 39.627 203.374 L 45.627 203.374 C 50.237 203.374 51.877 201.734 51.877 197.124 L 51.877 191.124 C 51.877 186.514 50.237 184.874 45.627 184.874 L 39.627 184.874 Z" fill="#777779" transform="matrix(1, 0, 0, 1, -7.105427357601002e-15, 0)"/>
  <path d="M 42.627 204.874 C 42.217 204.874 41.877 204.534 41.877 204.124 L 41.877 184.124 C 41.877 183.714 42.217 183.374 42.627 183.374 C 43.037 183.374 43.377 183.714 43.377 184.124 L 43.377 204.124 C 43.377 204.534 43.037 204.874 42.627 204.874 Z" fill="#777779" transform="matrix(1, 0, 0, 1, -7.105427357601002e-15, 0)"/>
  <path d="M 42.627 192.374 L 32.627 192.374 C 32.217 192.374 31.877 192.034 31.877 191.624 C 31.877 191.214 32.217 190.874 32.627 190.874 L 42.627 190.874 C 43.037 190.874 43.377 191.214 43.377 191.624 C 43.377 192.034 43.037 192.374 42.627 192.374 Z" fill="#777779" transform="matrix(1, 0, 0, 1, -7.105427357601002e-15, 0)"/>
  <path d="M 52.627 197.374 L 42.627 197.374 C 42.217 197.374 41.877 197.034 41.877 196.624 C 41.877 196.214 42.217 195.874 42.627 195.874 L 52.627 195.874 C 53.037 195.874 53.377 196.214 53.377 196.624 C 53.377 197.034 53.037 197.374 52.627 197.374 Z" fill="#777779" transform="matrix(1, 0, 0, 1, -7.105427357601002e-15, 0)"/>
</svg>