<?xml version="1.0" encoding="utf-8"?>
<svg viewBox="188.559 130.379 21.5 21.5" width="21.5" height="21.5" xmlns="http://www.w3.org/2000/svg">
  <defs/>
  <path d="M 202.309 151.879 L 196.309 151.879 C 190.879 151.879 188.559 149.559 188.559 144.129 L 188.559 138.129 C 188.559 132.699 190.879 130.379 196.309 130.379 L 202.309 130.379 C 207.739 130.379 210.059 132.699 210.059 138.129 L 210.059 144.129 C 210.059 149.559 207.739 151.879 202.309 151.879 Z M 196.309 131.879 C 191.699 131.879 190.059 133.519 190.059 138.129 L 190.059 144.129 C 190.059 148.739 191.699 150.379 196.309 150.379 L 202.309 150.379 C 206.919 150.379 208.559 148.739 208.559 144.129 L 208.559 138.129 C 208.559 133.519 206.919 131.879 202.309 131.879 L 196.309 131.879 Z" style="fill: rgb(255, 255, 255);" transform="matrix(1, 0, 0, 1, -7.105427357601002e-15, 0)"/>
  <path d="M 199.309 151.879 C 198.899 151.879 198.559 151.539 198.559 151.129 L 198.559 131.129 C 198.559 130.719 198.899 130.379 199.309 130.379 C 199.719 130.379 200.059 130.719 200.059 131.129 L 200.059 151.129 C 200.059 151.539 199.719 151.879 199.309 151.879 Z" style="fill: rgb(255, 255, 255);" transform="matrix(1, 0, 0, 1, -7.105427357601002e-15, 0)"/>
  <path d="M 199.309 139.379 L 189.309 139.379 C 188.899 139.379 188.559 139.039 188.559 138.629 C 188.559 138.219 188.899 137.879 189.309 137.879 L 199.309 137.879 C 199.719 137.879 200.059 138.219 200.059 138.629 C 200.059 139.039 199.719 139.379 199.309 139.379 Z" style="fill: rgb(255, 255, 255);" transform="matrix(1, 0, 0, 1, -7.105427357601002e-15, 0)"/>
  <path d="M 209.309 144.379 L 199.309 144.379 C 198.899 144.379 198.559 144.039 198.559 143.629 C 198.559 143.219 198.899 142.879 199.309 142.879 L 209.309 142.879 C 209.719 142.879 210.059 143.219 210.059 143.629 C 210.059 144.039 209.719 144.379 209.309 144.379 Z" style="fill: rgb(255, 255, 255);" transform="matrix(1, 0, 0, 1, -7.105427357601002e-15, 0)"/>
</svg>