<?xml version="1.0" encoding="utf-8"?>
<svg viewBox="34.931 309.124 20 20" width="20" height="20" xmlns="http://www.w3.org/2000/svg">
  <defs/>
  <path d="M 49.121 309.124 L 45.681 309.124 L 45.681 315.124 L 45.681 315.874 L 45.681 320.874 L 54.931 320.874 L 54.931 315.874 L 54.931 315.124 L 54.931 314.934 C 54.931 311.294 52.761 309.124 49.121 309.124 Z" fill="#0A0A0A" transform="matrix(1, 0, 0, 1, -7.105427357601002e-15, 0)"/>
  <path d="M 34.931 317.374 L 34.931 322.374 L 34.931 322.874 L 34.931 323.314 C 34.931 326.954 37.101 329.124 40.741 329.124 L 44.181 329.124 L 44.181 322.874 L 44.181 322.374 L 44.181 317.374 L 34.931 317.374 Z" fill="#0A0A0A" transform="matrix(1, 0, 0, 1, -7.105427357601002e-15, 0)"/>
  <path d="M 44.181 309.124 L 44.181 315.874 L 34.931 315.874 L 34.931 314.934 C 34.931 311.294 37.101 309.124 40.741 309.124 L 44.181 309.124 Z" fill="#0A0A0A" transform="matrix(1, 0, 0, 1, -7.105427357601002e-15, 0)"/>
  <path d="M 54.931 322.374 L 54.931 323.314 C 54.931 326.954 52.761 329.124 49.121 329.124 L 45.681 329.124 L 45.681 322.374 L 54.931 322.374 Z" fill="#0A0A0A" transform="matrix(1, 0, 0, 1, -7.105427357601002e-15, 0)"/>
</svg>