<?xml version="1.0" encoding="utf-8"?>
<svg viewBox="89.822 123.2301 21.032 21.5009" width="21.032" height="21.5009" xmlns="http://www.w3.org/2000/svg">
  <defs/>
  <path d="M 102.834 138.172 L 97.834 138.172 C 97.424 138.172 97.084 137.832 97.084 137.422 C 97.084 137.012 97.424 136.672 97.834 136.672 L 102.834 136.672 C 103.244 136.672 103.584 137.012 103.584 137.422 C 103.584 137.832 103.244 138.172 102.834 138.172 Z" style="fill: rgb(255, 255, 255);"/>
  <path d="M 100.334 140.73 C 99.924 140.73 99.584 140.39 99.584 139.98 L 99.584 134.98 C 99.584 134.57 99.924 134.23 100.334 134.23 C 100.744 134.23 101.084 134.57 101.084 134.98 L 101.084 139.98 C 101.084 140.39 100.744 140.73 100.334 140.73 Z" style="fill: rgb(255, 255, 255);"/>
  <path d="M 93.535 132.44 C 93.345 132.44 93.155 132.36 93.005 132.22 C 92.795 132.01 92.725 131.68 92.845 131.4 L 94.705 126.96 C 94.745 126.87 94.765 126.81 94.795 126.76 C 96.275 123.35 98.165 122.52 101.505 123.8 C 101.695 123.87 101.845 124.02 101.925 124.21 C 102.005 124.4 102.005 124.61 101.925 124.8 L 98.995 131.6 C 98.875 131.87 98.605 132.05 98.305 132.05 L 95.455 132.05 C 94.885 132.05 94.345 132.16 93.825 132.38 C 93.735 132.42 93.635 132.44 93.535 132.44 Z M 98.945 124.73 C 97.705 124.73 96.945 125.54 96.155 127.38 C 96.145 127.41 96.125 127.44 96.115 127.47 L 94.805 130.58 C 95.025 130.56 95.235 130.55 95.455 130.55 L 97.805 130.55 L 100.215 124.95 C 99.745 124.8 99.325 124.73 98.945 124.73 Z" style="fill: rgb(255, 255, 255);"/>
  <path d="M 106.622 132.249 C 106.552 132.249 106.472 132.239 106.402 132.219 C 106.032 132.109 105.622 132.049 105.202 132.049 L 98.302 132.049 C 98.052 132.049 97.812 131.919 97.672 131.709 C 97.542 131.499 97.512 131.229 97.612 130.999 L 100.512 124.269 C 100.662 123.909 101.102 123.669 101.472 123.789 C 101.592 123.829 101.702 123.879 101.822 123.929 L 104.182 124.919 C 105.562 125.489 106.482 126.089 107.082 126.809 C 107.202 126.949 107.302 127.099 107.392 127.249 C 107.502 127.419 107.602 127.629 107.672 127.839 C 107.702 127.909 107.752 128.039 107.782 128.179 C 108.062 129.119 107.922 130.289 107.322 131.789 C 107.202 132.069 106.922 132.249 106.622 132.249 Z M 99.442 130.549 L 105.212 130.549 C 105.532 130.549 105.842 130.579 106.152 130.629 C 106.432 129.759 106.492 129.089 106.332 128.549 C 106.312 128.459 106.292 128.419 106.282 128.379 C 106.222 128.219 106.182 128.129 106.132 128.049 C 106.062 127.939 106.012 127.849 105.932 127.759 C 105.502 127.239 104.742 126.759 103.612 126.299 L 101.632 125.469 L 99.442 130.549 Z" style="fill: rgb(255, 255, 255);"/>
  <path d="M 104.234 144.731 L 96.434 144.731 C 96.154 144.731 95.894 144.711 95.634 144.681 C 92.124 144.441 90.124 142.441 89.884 138.891 C 89.854 138.671 89.834 138.401 89.834 138.131 L 89.834 136.181 C 89.834 133.931 91.174 131.901 93.244 131.001 C 93.944 130.701 94.694 130.551 95.464 130.551 L 105.224 130.551 C 105.794 130.551 106.344 130.631 106.854 130.791 C 109.204 131.501 110.854 133.721 110.854 136.181 L 110.854 138.131 C 110.854 138.351 110.844 138.561 110.834 138.761 C 110.614 142.671 108.334 144.731 104.234 144.731 Z M 95.454 132.051 C 94.884 132.051 94.344 132.161 93.824 132.381 C 92.304 133.041 91.324 134.531 91.324 136.181 L 91.324 138.131 C 91.324 138.341 91.344 138.551 91.364 138.751 C 91.554 141.601 92.954 143.001 95.764 143.191 C 96.014 143.221 96.214 143.241 96.424 143.241 L 104.224 143.241 C 107.524 143.241 109.144 141.791 109.304 138.691 C 109.314 138.511 109.324 138.331 109.324 138.131 L 109.324 136.181 C 109.324 134.371 108.114 132.751 106.394 132.221 C 106.024 132.111 105.614 132.051 105.194 132.051 L 95.454 132.051 Z" style="fill: rgb(255, 255, 255);"/>
  <path d="M 90.572 136.932 C 90.162 136.932 89.822 136.592 89.822 136.182 L 89.822 133.252 C 89.822 130.102 92.052 127.382 95.132 126.782 C 95.402 126.732 95.682 126.832 95.862 127.042 C 96.032 127.252 96.082 127.552 95.972 127.802 L 94.222 131.982 C 94.142 132.162 94.002 132.302 93.832 132.382 C 92.312 133.042 91.332 134.532 91.332 136.182 C 91.322 136.592 90.992 136.932 90.572 136.932 Z M 93.932 128.802 C 92.652 129.522 91.722 130.782 91.432 132.252 C 91.872 131.802 92.382 131.422 92.962 131.142 L 93.932 128.802 Z" style="fill: rgb(255, 255, 255);"/>
  <path d="M 110.095 136.93 C 109.685 136.93 109.345 136.59 109.345 136.18 C 109.345 134.37 108.135 132.75 106.415 132.22 C 106.215 132.16 106.045 132.02 105.955 131.83 C 105.865 131.64 105.855 131.42 105.935 131.23 C 106.405 130.06 106.525 129.21 106.335 128.55 C 106.315 128.46 106.295 128.42 106.285 128.38 C 106.155 128.09 106.225 127.75 106.455 127.53 C 106.685 127.31 107.035 127.26 107.315 127.41 C 109.495 128.55 110.845 130.79 110.845 133.25 L 110.845 136.18 C 110.845 136.59 110.505 136.93 110.095 136.93 Z M 107.585 131.07 C 108.215 131.36 108.775 131.77 109.245 132.26 C 109.055 131.28 108.585 130.39 107.895 129.69 C 107.845 130.11 107.745 130.57 107.585 131.07 Z" style="fill: rgb(255, 255, 255);"/>
</svg>