<?xml version="1.0" encoding="utf-8"?>
<svg viewBox="56.24 164.427 19.52 19.992" width="19.52" height="19.992" xmlns="http://www.w3.org/2000/svg">
  <defs/>
  <path d="M 65.941 164.631 L 63.531 170.241 L 61.121 170.241 C 60.721 170.241 60.331 170.271 59.951 170.351 L 60.951 167.951 L 60.991 167.861 L 61.051 167.701 C 61.081 167.631 61.101 167.571 61.131 167.521 C 62.291 164.831 63.591 163.991 65.941 164.631 Z" fill="#0a0a0a"/>
  <path d="M 72.733 170.508 L 72.713 170.498 C 72.113 170.328 71.503 170.238 70.883 170.238 L 64.623 170.238 L 66.873 165.008 L 66.903 164.938 C 67.043 164.988 67.193 165.058 67.343 165.108 L 69.553 166.038 C 70.783 166.548 71.643 167.078 72.173 167.718 C 72.263 167.838 72.343 167.948 72.423 168.078 C 72.513 168.218 72.583 168.358 72.623 168.508 C 72.663 168.598 72.693 168.678 72.713 168.768 C 72.863 169.278 72.873 169.858 72.733 170.508 Z" fill="#0a0a0a"/>
  <path d="M 72.29 171.939 C 71.84 171.809 71.37 171.739 70.88 171.739 L 61.12 171.739 C 60.44 171.739 59.8 171.869 59.2 172.129 C 57.46 172.879 56.24 174.609 56.24 176.619 L 56.24 178.569 C 56.24 178.809 56.26 179.039 56.29 179.279 C 56.51 182.459 58.21 184.159 61.39 184.369 C 61.62 184.399 61.85 184.419 62.1 184.419 L 69.9 184.419 C 73.6 184.419 75.55 182.659 75.74 179.159 C 75.75 178.969 75.76 178.769 75.76 178.569 L 75.76 176.619 C 75.76 174.409 74.29 172.549 72.29 171.939 Z M 68.5 178.609 L 66.75 178.609 L 66.75 180.419 C 66.75 180.829 66.41 181.169 66 181.169 C 65.59 181.169 65.25 180.829 65.25 180.419 L 65.25 178.609 L 63.5 178.609 C 63.09 178.609 62.75 178.279 62.75 177.859 C 62.75 177.449 63.09 177.109 63.5 177.109 L 65.25 177.109 L 65.25 175.419 C 65.25 175.009 65.59 174.669 66 174.669 C 66.41 174.669 66.75 175.009 66.75 175.419 L 66.75 177.109 L 68.5 177.109 C 68.91 177.109 69.25 177.449 69.25 177.859 C 69.25 178.279 68.91 178.609 68.5 178.609 Z" fill="#0a0a0a"/>
</svg>