<?xml version="1.0" encoding="utf-8"?>
<svg viewBox="147.591 120.064 19.9722 20.4735" width="19.9722" height="20.4735" xmlns="http://www.w3.org/2000/svg">
  <defs/>
  <path d="M 163.124 125.834 C 163.054 125.824 162.984 125.824 162.914 125.834 C 161.364 125.784 160.134 124.514 160.134 122.954 C 160.134 121.364 161.424 120.064 163.024 120.064 C 164.614 120.064 165.914 121.354 165.914 122.954 C 165.904 124.514 164.674 125.784 163.124 125.834 Z" style="fill: rgb(255, 255, 255);"/>
  <path d="M 166.387 132.765 C 165.267 133.515 163.697 133.795 162.247 133.605 C 162.627 132.785 162.827 131.875 162.837 130.915 C 162.837 129.915 162.617 128.965 162.197 128.135 C 163.677 127.935 165.247 128.215 166.377 128.965 C 167.957 130.005 167.957 131.715 166.387 132.765 Z" style="fill: rgb(255, 255, 255);"/>
  <path d="M 152.035 125.834 C 152.105 125.824 152.175 125.824 152.245 125.834 C 153.795 125.784 155.025 124.514 155.025 122.954 C 155.025 121.354 153.735 120.064 152.135 120.064 C 150.545 120.064 149.255 121.354 149.255 122.954 C 149.255 124.514 150.485 125.784 152.035 125.834 Z" style="fill: rgb(255, 255, 255);"/>
  <path d="M 152.146 130.915 C 152.146 131.885 152.356 132.805 152.736 133.635 C 151.326 133.785 149.856 133.485 148.776 132.775 C 147.196 131.725 147.196 130.015 148.776 128.965 C 149.846 128.245 151.356 127.955 152.776 128.115 C 152.366 128.955 152.146 129.905 152.146 130.915 Z" style="fill: rgb(255, 255, 255);"/>
  <path d="M 157.716 133.934 C 157.636 133.924 157.546 133.924 157.456 133.934 C 155.616 133.874 154.146 132.364 154.146 130.504 C 154.156 128.604 155.686 127.064 157.596 127.064 C 159.496 127.064 161.036 128.604 161.036 130.504 C 161.026 132.364 159.566 133.874 157.716 133.934 Z" style="fill: rgb(255, 255, 255);"/>
  <path d="M 154.466 136.005 C 152.956 137.015 152.956 138.675 154.466 139.675 C 156.186 140.825 159.006 140.825 160.726 139.675 C 162.236 138.665 162.236 137.005 160.726 136.005 C 159.016 134.855 156.196 134.855 154.466 136.005 Z" style="fill: rgb(255, 255, 255);"/>
</svg>