<?xml version="1.0" encoding="utf-8"?>
<svg viewBox="97.799 209.996 21.469 21.509" width="21.469" height="21.509" xmlns="http://www.w3.org/2000/svg">
  <defs/>
  <path d="M 114.55 216.657 C 114.52 216.657 114.5 216.657 114.47 216.657 L 114.42 216.657 C 112.53 216.597 111.12 215.137 111.12 213.337 C 111.12 211.497 112.62 210.007 114.45 210.007 C 116.28 210.007 117.78 211.507 117.78 213.337 C 117.77 215.147 116.36 216.607 114.56 216.667 C 114.56 216.657 114.56 216.657 114.55 216.657 Z M 114.45 211.497 C 113.44 211.497 112.62 212.317 112.62 213.327 C 112.62 214.317 113.39 215.117 114.38 215.157 C 114.39 215.147 114.47 215.147 114.56 215.157 C 115.53 215.107 116.28 214.307 116.29 213.327 C 116.29 212.317 115.47 211.497 114.45 211.497 Z" style="fill: rgb(255, 255, 255);"/>
  <path d="M 114.558 224.026 C 114.168 224.026 113.778 223.996 113.388 223.926 C 112.978 223.856 112.708 223.466 112.778 223.056 C 112.848 222.646 113.238 222.376 113.648 222.446 C 114.878 222.656 116.178 222.426 117.048 221.846 C 117.518 221.536 117.768 221.146 117.768 220.756 C 117.768 220.366 117.508 219.986 117.048 219.676 C 116.178 219.096 114.858 218.866 113.618 219.086 C 113.208 219.166 112.818 218.886 112.748 218.476 C 112.678 218.066 112.948 217.676 113.358 217.606 C 114.988 217.316 116.678 217.626 117.878 218.426 C 118.758 219.016 119.268 219.856 119.268 220.756 C 119.268 221.646 118.768 222.496 117.878 223.096 C 116.968 223.696 115.788 224.026 114.558 224.026 Z" style="fill: rgb(255, 255, 255);"/>
  <path d="M 102.52 216.656 C 102.51 216.656 102.5 216.656 102.5 216.656 C 100.7 216.596 99.29 215.136 99.28 213.336 C 99.28 211.496 100.78 209.996 102.61 209.996 C 104.44 209.996 105.94 211.496 105.94 213.326 C 105.94 215.136 104.53 216.596 102.73 216.656 L 102.52 215.906 L 102.59 216.656 C 102.57 216.656 102.54 216.656 102.52 216.656 Z M 102.62 215.156 C 102.68 215.156 102.73 215.156 102.79 215.166 C 103.68 215.126 104.46 214.326 104.46 213.336 C 104.46 212.326 103.64 211.506 102.63 211.506 C 101.62 211.506 100.8 212.326 100.8 213.336 C 100.8 214.316 101.56 215.106 102.53 215.166 C 102.54 215.156 102.58 215.156 102.62 215.156 Z" style="fill: rgb(255, 255, 255);"/>
  <path d="M 102.509 224.026 C 101.279 224.026 100.099 223.696 99.189 223.096 C 98.309 222.506 97.799 221.656 97.799 220.756 C 97.799 219.866 98.309 219.016 99.189 218.426 C 100.389 217.626 102.079 217.316 103.709 217.606 C 104.119 217.676 104.389 218.066 104.319 218.476 C 104.249 218.886 103.859 219.166 103.449 219.086 C 102.209 218.866 100.899 219.096 100.019 219.676 C 99.549 219.986 99.299 220.366 99.299 220.756 C 99.299 221.146 99.559 221.536 100.019 221.846 C 100.889 222.426 102.189 222.656 103.419 222.446 C 103.829 222.376 104.219 222.656 104.289 223.056 C 104.359 223.466 104.089 223.856 103.679 223.926 C 103.289 223.996 102.899 224.026 102.509 224.026 Z" style="fill: rgb(255, 255, 255);"/>
  <path d="M 108.55 224.126 C 108.52 224.126 108.5 224.126 108.47 224.126 L 108.42 224.126 C 106.53 224.066 105.12 222.606 105.12 220.806 C 105.12 218.966 106.62 217.476 108.45 217.476 C 110.28 217.476 111.78 218.976 111.78 220.806 C 111.77 222.616 110.36 224.076 108.56 224.136 C 108.56 224.126 108.56 224.126 108.55 224.126 Z M 108.45 218.966 C 107.44 218.966 106.62 219.786 106.62 220.796 C 106.62 221.786 107.39 222.586 108.38 222.626 C 108.39 222.616 108.47 222.616 108.56 222.626 C 109.53 222.576 110.28 221.776 110.29 220.796 C 110.29 219.796 109.47 218.966 108.45 218.966 Z" style="fill: rgb(255, 255, 255);"/>
  <path d="M 108.551 231.505 C 107.351 231.505 106.151 231.195 105.221 230.565 C 104.341 229.975 103.831 229.135 103.831 228.235 C 103.831 227.345 104.331 226.484 105.221 225.895 C 107.091 224.654 110.021 224.654 111.881 225.895 C 112.761 226.484 113.271 227.325 113.271 228.225 C 113.271 229.115 112.771 229.975 111.881 230.565 C 110.951 231.185 109.751 231.505 108.551 231.505 Z M 106.051 227.155 C 105.581 227.465 105.331 227.855 105.331 228.245 C 105.331 228.635 105.591 229.015 106.051 229.325 C 107.401 230.235 109.691 230.235 111.041 229.325 C 111.511 229.015 111.761 228.625 111.761 228.235 C 111.761 227.845 111.501 227.465 111.041 227.155 C 109.701 226.245 107.411 226.255 106.051 227.155 Z" style="fill: rgb(255, 255, 255);"/>
</svg>