<?xml version="1.0" encoding="utf-8"?>
<svg viewBox="36.631 135.287 21.5 21.5" width="21.5" height="21.5" xmlns="http://www.w3.org/2000/svg">
  <defs/>
  <path d="M 42.381 148.727 C 41.971 148.727 41.631 148.387 41.631 147.977 L 41.631 144.767 C 41.631 144.357 41.971 144.017 42.381 144.017 C 42.791 144.017 43.131 144.357 43.131 144.767 L 43.131 147.977 C 43.131 148.397 42.791 148.727 42.381 148.727 Z" style="fill: rgb(255, 255, 255);"/>
  <path d="M 47.381 150.467 C 46.971 150.467 46.631 150.127 46.631 149.717 L 46.631 143.037 C 46.631 142.627 46.971 142.287 47.381 142.287 C 47.791 142.287 48.131 142.627 48.131 143.037 L 48.131 149.717 C 48.131 150.127 47.791 150.467 47.381 150.467 Z" style="fill: rgb(255, 255, 255);"/>
  <path d="M 52.381 148.727 C 51.971 148.727 51.631 148.387 51.631 147.977 L 51.631 144.767 C 51.631 144.357 51.971 144.017 52.381 144.017 C 52.791 144.017 53.131 144.357 53.131 144.767 L 53.131 147.977 C 53.131 148.397 52.791 148.727 52.381 148.727 Z" style="fill: rgb(255, 255, 255);"/>
  <path d="M 50.381 156.787 L 44.381 156.787 C 38.951 156.787 36.631 154.467 36.631 149.037 L 36.631 143.037 C 36.631 137.607 38.951 135.287 44.381 135.287 L 50.381 135.287 C 55.811 135.287 58.131 137.607 58.131 143.037 L 58.131 149.037 C 58.131 154.467 55.811 156.787 50.381 156.787 Z M 44.381 136.787 C 39.771 136.787 38.131 138.427 38.131 143.037 L 38.131 149.037 C 38.131 153.647 39.771 155.287 44.381 155.287 L 50.381 155.287 C 54.991 155.287 56.631 153.647 56.631 149.037 L 56.631 143.037 C 56.631 138.937 54.991 136.787 50.381 136.787 L 44.381 136.787 Z" style="fill: rgb(255, 255, 255);"/>
</svg>