<?xml version="1.0" encoding="utf-8"?>
<svg viewBox="134.748 151.604 20 20" width="20" height="20" xmlns="http://www.w3.org/2000/svg">
  <defs/>
  <path d="M 148.938 151.604 L 140.558 151.604 C 136.918 151.604 134.748 153.774 134.748 157.414 L 134.748 165.794 C 134.748 169.434 136.918 171.604 140.558 171.604 L 148.938 171.604 C 152.578 171.604 154.748 169.434 154.748 165.794 L 154.748 157.414 C 154.748 153.774 152.578 151.604 148.938 151.604 Z M 140.498 163.204 C 140.498 163.614 140.158 163.954 139.748 163.954 C 139.338 163.954 138.998 163.614 138.998 163.204 L 138.998 160.004 C 138.998 159.594 139.338 159.254 139.748 159.254 C 140.158 159.254 140.498 159.594 140.498 160.004 L 140.498 163.204 Z M 145.498 164.944 C 145.498 165.354 145.158 165.694 144.748 165.694 C 144.338 165.694 143.998 165.354 143.998 164.944 L 143.998 158.264 C 143.998 157.854 144.338 157.514 144.748 157.514 C 145.158 157.514 145.498 157.854 145.498 158.264 L 145.498 164.944 Z M 150.498 163.204 C 150.498 163.614 150.158 163.954 149.748 163.954 C 149.338 163.954 148.998 163.614 148.998 163.204 L 148.998 160.004 C 148.998 159.594 149.338 159.254 149.748 159.254 C 150.158 159.254 150.498 159.594 150.498 160.004 L 150.498 163.204 Z" style="fill: rgb(255, 255, 255);"/>
  <path d="M 139.762 163.977 C 139.352 163.977 139.012 163.637 139.012 163.227 L 139.012 160.017 C 139.012 159.607 139.352 159.267 139.762 159.267 C 140.172 159.267 140.512 159.607 140.512 160.017 L 140.512 163.227 C 140.512 163.647 140.172 163.977 139.762 163.977 Z" style=""/>
  <path d="M 144.762 165.717 C 144.352 165.717 144.012 165.377 144.012 164.967 L 144.012 158.287 C 144.012 157.877 144.352 157.537 144.762 157.537 C 145.172 157.537 145.512 157.877 145.512 158.287 L 145.512 164.967 C 145.512 165.377 145.172 165.717 144.762 165.717 Z" style=""/>
  <path d="M 149.762 163.977 C 149.352 163.977 149.012 163.637 149.012 163.227 L 149.012 160.017 C 149.012 159.607 149.352 159.267 149.762 159.267 C 150.172 159.267 150.512 159.607 150.512 160.017 L 150.512 163.227 C 150.512 163.647 150.172 163.977 149.762 163.977 Z" style=""/>
</svg>