<?xml version="1.0" encoding="utf-8"?>
<svg viewBox="344.502 162.1451 21.032 21.5009" width="21.032" height="21.5009" xmlns="http://www.w3.org/2000/svg">
  <defs/>
  <path d="M 357.514 177.087 L 352.514 177.087 C 352.104 177.087 351.764 176.747 351.764 176.337 C 351.764 175.927 352.104 175.587 352.514 175.587 L 357.514 175.587 C 357.924 175.587 358.264 175.927 358.264 176.337 C 358.264 176.747 357.924 177.087 357.514 177.087 Z" style="fill: rgb(255, 255, 255);"/>
  <path d="M 348.215 171.355 C 348.025 171.355 347.835 171.275 347.685 171.135 C 347.475 170.925 347.405 170.595 347.525 170.315 L 349.385 165.875 C 349.425 165.785 349.445 165.725 349.475 165.675 C 350.955 162.265 352.845 161.435 356.185 162.715 C 356.375 162.785 356.525 162.935 356.605 163.125 C 356.685 163.315 356.685 163.525 356.605 163.715 L 353.675 170.515 C 353.555 170.785 353.285 170.965 352.985 170.965 L 350.135 170.965 C 349.565 170.965 349.025 171.075 348.505 171.295 C 348.415 171.335 348.315 171.355 348.215 171.355 Z M 353.625 163.645 C 352.385 163.645 351.625 164.455 350.835 166.295 C 350.825 166.325 350.805 166.355 350.795 166.385 L 349.485 169.495 C 349.705 169.475 349.915 169.465 350.135 169.465 L 352.485 169.465 L 354.895 163.865 C 354.425 163.715 354.005 163.645 353.625 163.645 Z" style="fill: rgb(255, 255, 255);"/>
  <path d="M 361.302 171.164 C 361.232 171.164 361.152 171.154 361.082 171.134 C 360.712 171.024 360.302 170.964 359.882 170.964 L 352.982 170.964 C 352.732 170.964 352.492 170.834 352.352 170.624 C 352.222 170.414 352.192 170.144 352.292 169.914 L 355.192 163.184 C 355.342 162.824 355.782 162.584 356.152 162.704 C 356.272 162.744 356.382 162.794 356.502 162.844 L 358.862 163.834 C 360.242 164.404 361.162 165.004 361.762 165.724 C 361.882 165.864 361.982 166.014 362.072 166.164 C 362.182 166.334 362.282 166.544 362.352 166.754 C 362.382 166.824 362.432 166.954 362.462 167.094 C 362.742 168.034 362.602 169.204 362.002 170.704 C 361.882 170.984 361.602 171.164 361.302 171.164 Z M 354.122 169.464 L 359.892 169.464 C 360.212 169.464 360.522 169.494 360.832 169.544 C 361.112 168.674 361.172 168.004 361.012 167.464 C 360.992 167.374 360.972 167.334 360.962 167.294 C 360.902 167.134 360.862 167.044 360.812 166.964 C 360.742 166.854 360.692 166.764 360.612 166.674 C 360.182 166.154 359.422 165.674 358.292 165.214 L 356.312 164.384 L 354.122 169.464 Z" style="fill: rgb(255, 255, 255);"/>
  <path d="M 358.914 183.646 L 351.114 183.646 C 350.834 183.646 350.574 183.626 350.314 183.596 C 346.804 183.356 344.804 181.356 344.564 177.806 C 344.534 177.586 344.514 177.316 344.514 177.046 L 344.514 175.096 C 344.514 172.846 345.854 170.816 347.924 169.916 C 348.624 169.616 349.374 169.466 350.144 169.466 L 359.904 169.466 C 360.474 169.466 361.024 169.546 361.534 169.706 C 363.884 170.416 365.534 172.636 365.534 175.096 L 365.534 177.046 C 365.534 177.266 365.524 177.476 365.514 177.676 C 365.294 181.586 363.014 183.646 358.914 183.646 Z M 350.134 170.966 C 349.564 170.966 349.024 171.076 348.504 171.296 C 346.984 171.956 346.004 173.446 346.004 175.096 L 346.004 177.046 C 346.004 177.256 346.024 177.466 346.044 177.666 C 346.234 180.516 347.634 181.916 350.444 182.106 C 350.694 182.136 350.894 182.156 351.104 182.156 L 358.904 182.156 C 362.204 182.156 363.824 180.706 363.984 177.606 C 363.994 177.426 364.004 177.246 364.004 177.046 L 364.004 175.096 C 364.004 173.286 362.794 171.666 361.074 171.136 C 360.704 171.026 360.294 170.966 359.874 170.966 L 350.134 170.966 Z" style="fill: rgb(255, 255, 255);"/>
  <path d="M 345.252 175.847 C 344.842 175.847 344.502 175.507 344.502 175.097 L 344.502 172.167 C 344.502 169.017 346.732 166.297 349.812 165.697 C 350.082 165.647 350.362 165.747 350.542 165.957 C 350.712 166.167 350.762 166.467 350.652 166.717 L 348.902 170.897 C 348.822 171.077 348.682 171.217 348.512 171.297 C 346.992 171.957 346.012 173.447 346.012 175.097 C 346.002 175.507 345.672 175.847 345.252 175.847 Z M 348.612 167.717 C 347.332 168.437 346.402 169.697 346.112 171.167 C 346.552 170.717 347.062 170.337 347.642 170.057 L 348.612 167.717 Z" style="fill: rgb(255, 255, 255);"/>
  <path d="M 364.775 175.845 C 364.365 175.845 364.025 175.505 364.025 175.095 C 364.025 173.285 362.815 171.665 361.095 171.135 C 360.895 171.075 360.725 170.935 360.635 170.745 C 360.545 170.555 360.535 170.335 360.615 170.145 C 361.085 168.975 361.205 168.125 361.015 167.465 C 360.995 167.375 360.975 167.335 360.965 167.295 C 360.835 167.005 360.905 166.665 361.135 166.445 C 361.365 166.225 361.715 166.175 361.995 166.325 C 364.175 167.465 365.525 169.705 365.525 172.165 L 365.525 175.095 C 365.525 175.505 365.185 175.845 364.775 175.845 Z M 362.265 169.985 C 362.895 170.275 363.455 170.685 363.925 171.175 C 363.735 170.195 363.265 169.305 362.575 168.605 C 362.525 169.025 362.425 169.485 362.265 169.985 Z" style="fill: rgb(255, 255, 255);"/>
</svg>