<?xml version="1.0" encoding="utf-8"?>
<svg viewBox="134.825 340.234 19.52 19.993" width="19.52" height="19.993" xmlns="http://www.w3.org/2000/svg">
  <defs/>
  <path d="M 144.526 340.438 L 142.116 346.048 L 139.706 346.048 C 139.306 346.048 138.916 346.078 138.536 346.158 L 139.536 343.758 L 139.576 343.668 L 139.636 343.508 C 139.666 343.438 139.686 343.378 139.716 343.328 C 140.876 340.638 142.176 339.798 144.526 340.438 Z" fill="#0a0a0a" transform="matrix(1, 0, 0, 1, -7.105427357601002e-15, 0)"/>
  <path d="M 151.318 346.316 L 151.298 346.306 C 150.698 346.136 150.088 346.046 149.468 346.046 L 143.208 346.046 L 145.458 340.816 L 145.488 340.746 C 145.628 340.796 145.778 340.866 145.928 340.916 L 148.138 341.846 C 149.368 342.356 150.228 342.886 150.758 343.526 C 150.848 343.646 150.928 343.756 151.008 343.886 C 151.098 344.026 151.168 344.166 151.208 344.316 C 151.248 344.406 151.278 344.486 151.298 344.576 C 151.448 345.086 151.458 345.666 151.318 346.316 Z" fill="#0a0a0a" transform="matrix(1, 0, 0, 1, -7.105427357601002e-15, 0)"/>
  <path d="M 150.875 347.747 C 150.425 347.617 149.955 347.547 149.465 347.547 L 139.705 347.547 C 139.025 347.547 138.385 347.677 137.785 347.937 C 136.045 348.687 134.825 350.417 134.825 352.427 L 134.825 354.377 C 134.825 354.617 134.845 354.847 134.875 355.087 C 135.095 358.267 136.795 359.967 139.975 360.177 C 140.205 360.207 140.435 360.227 140.685 360.227 L 148.485 360.227 C 152.185 360.227 154.135 358.467 154.325 354.967 C 154.335 354.777 154.345 354.577 154.345 354.377 L 154.345 352.427 C 154.345 350.217 152.875 348.357 150.875 347.747 Z M 147.085 354.977 L 142.085 354.977 C 141.675 354.977 141.335 354.637 141.335 354.227 C 141.335 353.817 141.675 353.477 142.085 353.477 L 147.085 353.477 C 147.495 353.477 147.835 353.817 147.835 354.227 C 147.835 354.637 147.495 354.977 147.085 354.977 Z" fill="#0a0a0a" transform="matrix(1, 0, 0, 1, -7.105427357601002e-15, 0)"/>
</svg>